<?xml version="1.0" encoding="UTF-8" standalone="no"?>
<svg
   xmlns:dc="http://purl.org/dc/elements/1.1/"
   xmlns:cc="http://creativecommons.org/ns#"
   xmlns:rdf="http://www.w3.org/1999/02/22-rdf-syntax-ns#"
   xmlns:svg="http://www.w3.org/2000/svg"
   xmlns="http://www.w3.org/2000/svg"
   xmlns:sodipodi="http://sodipodi.sourceforge.net/DTD/sodipodi-0.dtd"
   xmlns:inkscape="http://www.inkscape.org/namespaces/inkscape"
   version="1.1"
   id="Layer_1"
   x="0px"
   y="0px"
   width="1024"
   height="768"
   viewBox="0 0 1024 768"
   enable-background="new 0 0 100 100"
   xml:space="preserve"
   inkscape:version="0.48.2 r9819"
   sodipodi:docname="handshake_logo.svg"><metadata
   id="metadata9"><rdf:RDF><cc:Work
       rdf:about=""><dc:format>image/svg+xml</dc:format><dc:type
         rdf:resource="http://purl.org/dc/dcmitype/StillImage" /><dc:title></dc:title></cc:Work></rdf:RDF></metadata><defs
   id="defs7" /><sodipodi:namedview
   pagecolor="#ffffff"
   bordercolor="#666666"
   borderopacity="1"
   objecttolerance="10"
   gridtolerance="10"
   guidetolerance="10"
   inkscape:pageopacity="0"
   inkscape:pageshadow="2"
   inkscape:window-width="1795"
   inkscape:window-height="1108"
   id="namedview5"
   showgrid="false"
   showguides="true"
   inkscape:guide-bbox="true"
   inkscape:zoom="1"
   inkscape:cx="271.77622"
   inkscape:cy="498.22824"
   inkscape:window-x="0"
   inkscape:window-y="0"
   inkscape:window-maximized="0"
   inkscape:current-layer="Layer_1" />

<path
   style="fill:#999999"
   inkscape:connector-curvature="0"
   id="path3012"
   d="m 92.267708,52.567239 c -1.037352,-1.098518 -2.768329,-1.148723 -3.868305,-0.111812 l -7.293443,6.879968 c -0.224203,-2.792246 -1.230494,-5.367915 -2.802747,-7.501881 0.02389,-0.143412 0.04493,-0.288265 0.04493,-0.43884 V 34.207702 c 0,-1.511073 -1.224721,-2.736302 -2.736781,-2.736302 -1.512037,0 -2.736293,1.225229 -2.736293,2.736302 V 47.307434 C 72.352553,47.053113 71.812386,46.832273 71.258328,46.640577 V 30.298778 c 0,-1.511094 -1.225208,-2.736301 -2.736295,-2.736301 -1.511086,0 -2.736294,1.225207 -2.736294,2.736301 v 15.554471 c -0.566005,0.0262 -1.123404,0.08501 -1.67076,0.174015 V 31.489122 c 0,-1.511092 -1.225208,-2.736301 -2.736294,-2.736301 -1.511086,0 -2.735829,1.225209 -2.735829,2.736301 v 16.615224 c -0.48139,0.304507 -0.944595,0.635316 -1.385833,0.991926 v -6.295294 c 0,-1.511094 -1.224744,-2.736302 -2.736295,-2.736302 -1.510621,0 -2.735829,1.225208 -2.735829,2.736302 v 17.186495 c 0,0.0364 0.0095,0.0702 0.01057,0.107008 -0.0038,0.143013 -0.01057,0.283946 -0.01057,0.426878 0,8.097991 6.587873,14.686352 14.68586,14.686352 4.194797,0 7.982798,-1.771135 10.661731,-4.600666 L 92.154887,56.435079 c 1.099026,-1.03687 1.149687,-2.768804 0.112801,-3.86782 z m -35.010685,7.95364 c 0,-5.08109 4.133122,-9.213753 9.213736,-9.213753 5.08108,0 9.21471,4.132663 9.21471,9.213753 0,2.417932 -0.943666,4.613084 -2.471962,6.259449 l -0.02487,0.0234 c -0.02772,0.0262 -0.04635,0.0568 -0.07218,0.08321 -1.678879,1.751534 -4.034658,2.84865 -6.6457,2.84865 -5.080128,0 -9.213736,-4.134584 -9.213736,-9.214709 z"
   inkscape:export-filename="/Users/shubhro/Documents/Human-Computer/Oz/extension/logo.png"
   inkscape:export-xdpi="90"
   inkscape:export-ydpi="90" /><flowRoot
   transform="matrix(0.69700404,0,0,0.69700404,-397.29139,-243.66491)"
   style="font-size:40.00000381000000260px;font-style:normal;font-variant:normal;font-weight:bold;font-stretch:normal;text-align:start;line-height:125%;letter-spacing:0px;word-spacing:0px;writing-mode:lr-tb;text-anchor:start;fill:#999999;fill-opacity:1;stroke:#999999;stroke-width:2.26144885999999978;stroke-miterlimit:4;stroke-opacity:1;stroke-dasharray:none;font-family:Serto Urhoy;-inkscape-font-specification:Serto Urhoy Bold"
   id="flowRoot3014"
   xml:space="preserve"
   inkscape:export-filename="/Users/shubhro/Documents/Human-Computer/Oz/extension/logo.png"
   inkscape:export-xdpi="90"
   inkscape:export-ydpi="90"><flowRegion
     id="flowRegion3016"><rect
       style="font-size:40.00000381000000260px;font-style:normal;font-variant:normal;font-weight:bold;font-stretch:normal;text-align:start;line-height:125%;writing-mode:lr-tb;text-anchor:start;stroke:#999999;stroke-width:2.26144885999999978;stroke-miterlimit:4;stroke-opacity:1;stroke-dasharray:none;font-family:Serto Urhoy;-inkscape-font-specification:Serto Urhoy Bold;fill:#999999"
       y="410"
       x="656"
       height="235"
       width="378"
       id="rect3018" /></flowRegion><flowPara
     id="flowPara3020">z</flowPara></flowRoot><path
   d="m 589.07675,105.05479 c -1.5969,-1.69106 -4.26156,-1.76835 -5.95486,-0.17213 l -11.22752,10.59102 c -0.34514,-4.29838 -1.89423,-8.26336 -4.31455,-11.54839 0.0368,-0.22077 0.0692,-0.44375 0.0692,-0.67555 V 76.79213 c 0,-2.326144 -1.88533,-4.212259 -4.213,-4.212259 -2.32762,0 -4.21224,1.886115 -4.21224,4.212259 v 20.165717 c -0.80436,-0.391502 -1.63589,-0.731461 -2.48881,-1.02656 v -25.15655 c 0,-2.326177 -1.88609,-4.21226 -4.21225,-4.21226 -2.32616,0 -4.21225,1.886083 -4.21225,4.21226 v 23.944538 c -0.87131,0.04033 -1.72937,0.130859 -2.57196,0.267879 V 72.607152 c 0,-2.326175 -1.88609,-4.212261 -4.21225,-4.212261 -2.32617,0 -4.21154,1.886086 -4.21154,4.212261 v 25.577461 c -0.74105,0.468757 -1.45411,0.978005 -2.13335,1.52697 v -9.690969 c 0,-2.326178 -1.88537,-4.212263 -4.21225,-4.212263 -2.32545,0 -4.21153,1.886085 -4.21153,4.212263 v 26.456876 c 0,0.056 0.0147,0.10807 0.0163,0.16473 -0.006,0.22015 -0.0163,0.4371 -0.0163,0.65713 0,12.46604 10.14137,22.60816 22.6074,22.60816 6.45747,0 12.28871,-2.72648 16.41266,-7.08226 l 23.12546,-21.81631 c 1.69184,-1.59616 1.76983,-4.2623 0.17365,-5.95412 z m -53.89542,12.24382 c 0,-7.82182 6.36253,-14.18364 14.18362,-14.18364 7.82181,0 14.18512,6.36182 14.18512,14.18364 0,3.72217 -1.45268,7.10138 -3.80534,9.63579 l -0.0383,0.036 c -0.0427,0.0403 -0.0713,0.0875 -0.11112,0.12809 -2.58446,2.69631 -6.21094,4.38521 -10.23038,4.38521 -7.82034,0 -14.18362,-6.36477 -14.18362,-14.18511 z"
   id="path3790"
   inkscape:connector-curvature="0"
   style="fill:#999999;stroke:#999999"
   inkscape:export-filename="/Users/shubhro/Documents/Human-Computer/Oz/extension/signals/signal0.png"
   inkscape:export-xdpi="90"
   inkscape:export-ydpi="90" /><flowRoot
   xml:space="preserve"
   id="flowRoot3792"
   style="font-size:40.00000381000000260px;font-style:normal;font-variant:normal;font-weight:bold;font-stretch:normal;text-align:start;line-height:125%;letter-spacing:0px;word-spacing:0px;writing-mode:lr-tb;text-anchor:start;fill:#999999;fill-opacity:1;stroke:#999999;stroke-width:2.26144885999999978;stroke-miterlimit:4;stroke-opacity:1;stroke-dasharray:none;font-family:Serto Urhoy;-inkscape-font-specification:Serto Urhoy Bold"
   transform="matrix(0.68266602,0,0,0.68266602,93.82873,-177.25963)"
   inkscape:export-filename="/Users/shubhro/Documents/Human-Computer/Oz/extension/signals/signal0.png"
   inkscape:export-xdpi="90"
   inkscape:export-ydpi="90"><flowRegion
     id="flowRegion3794"><rect
       id="rect3796"
       width="378"
       height="235"
       x="656"
       y="410"
       style="font-size:40.00000381000000260px;font-style:normal;font-variant:normal;font-weight:bold;font-stretch:normal;text-align:start;line-height:125%;writing-mode:lr-tb;text-anchor:start;stroke:#999999;stroke-width:2.26144885999999978;stroke-miterlimit:4;stroke-opacity:1;stroke-dasharray:none;font-family:Serto Urhoy;-inkscape-font-specification:Serto Urhoy Bold;fill:#999999" /></flowRegion><flowPara
     id="flowPara3798">1</flowPara></flowRoot><path
   style="fill:#999999;stroke:#999999"
   inkscape:connector-curvature="0"
   id="path3800"
   d="m 658.64695,105.05479 c -1.5969,-1.69106 -4.26156,-1.76835 -5.95486,-0.17213 l -11.22752,10.59102 c -0.34514,-4.29838 -1.89423,-8.26336 -4.31455,-11.54839 0.0368,-0.22077 0.0692,-0.44375 0.0692,-0.67555 V 76.79213 c 0,-2.326144 -1.88533,-4.212259 -4.21299,-4.212259 -2.32763,0 -4.21225,1.886115 -4.21225,4.212259 v 20.165717 c -0.80436,-0.391502 -1.63589,-0.731461 -2.48881,-1.02656 v -25.15655 c 0,-2.326177 -1.88608,-4.21226 -4.21225,-4.21226 -2.32616,0 -4.21225,1.886083 -4.21225,4.21226 v 23.944538 c -0.87131,0.04033 -1.72936,0.130859 -2.57196,0.267879 V 72.607152 c 0,-2.326175 -1.88609,-4.212261 -4.21225,-4.212261 -2.32617,0 -4.21154,1.886086 -4.21154,4.212261 v 25.577461 c -0.74105,0.468757 -1.45411,0.978005 -2.13335,1.52697 v -9.690969 c 0,-2.326178 -1.88537,-4.212263 -4.21225,-4.212263 -2.32544,0 -4.21153,1.886085 -4.21153,4.212263 v 26.456876 c 0,0.056 0.0147,0.10807 0.0163,0.16473 -0.006,0.22015 -0.0163,0.4371 -0.0163,0.65713 0,12.46604 10.14137,22.60816 22.6074,22.60816 6.45747,0 12.28871,-2.72648 16.41266,-7.08226 l 23.12546,-21.81631 c 1.69184,-1.59616 1.76983,-4.2623 0.17365,-5.95412 z m -53.89542,12.24382 c 0,-7.82182 6.36253,-14.18364 14.18362,-14.18364 7.82181,0 14.18512,6.36182 14.18512,14.18364 0,3.72217 -1.45268,7.10138 -3.80534,9.63579 l -0.0383,0.036 c -0.0427,0.0403 -0.0713,0.0875 -0.11111,0.12809 -2.58447,2.69631 -6.21095,4.38521 -10.23039,4.38521 -7.82034,0 -14.18362,-6.36477 -14.18362,-14.18511 z"
   inkscape:export-filename="/Users/shubhro/Documents/Human-Computer/Oz/extension/signals/signal0.png"
   inkscape:export-xdpi="90"
   inkscape:export-ydpi="90" /><flowRoot
   transform="matrix(0.68266602,0,0,0.68266602,164.04989,-177.25963)"
   style="font-size:40.00000381000000260px;font-style:normal;font-variant:normal;font-weight:bold;font-stretch:normal;text-align:start;line-height:125%;letter-spacing:0px;word-spacing:0px;writing-mode:lr-tb;text-anchor:start;fill:#999999;fill-opacity:1;stroke:#999999;stroke-width:2.26144885999999978;stroke-miterlimit:4;stroke-opacity:1;stroke-dasharray:none;font-family:Serto Urhoy;-inkscape-font-specification:Serto Urhoy Bold"
   id="flowRoot3802"
   xml:space="preserve"
   inkscape:export-filename="/Users/shubhro/Documents/Human-Computer/Oz/extension/signals/signal0.png"
   inkscape:export-xdpi="90"
   inkscape:export-ydpi="90"><flowRegion
     id="flowRegion3804"><rect
       style="font-size:40.00000381000000260px;font-style:normal;font-variant:normal;font-weight:bold;font-stretch:normal;text-align:start;line-height:125%;writing-mode:lr-tb;text-anchor:start;stroke:#999999;stroke-width:2.26144885999999978;stroke-miterlimit:4;stroke-opacity:1;stroke-dasharray:none;font-family:Serto Urhoy;-inkscape-font-specification:Serto Urhoy Bold;fill:#999999"
       y="410"
       x="656"
       height="235"
       width="378"
       id="rect3806" /></flowRegion><flowPara
     id="flowPara3808">2</flowPara></flowRoot><path
   d="m 728.67745,105.05479 c -1.59689,-1.69106 -4.26156,-1.76835 -5.95486,-0.17213 l -11.22752,10.59102 c -0.34514,-4.29838 -1.89422,-8.26336 -4.31455,-11.54839 0.0368,-0.22077 0.0692,-0.44375 0.0692,-0.67555 V 76.79213 c 0,-2.326144 -1.88534,-4.212259 -4.213,-4.212259 -2.32763,0 -4.21225,1.886115 -4.21225,4.212259 v 20.165717 c -0.80436,-0.391502 -1.63589,-0.731461 -2.48881,-1.02656 v -25.15655 c 0,-2.326177 -1.88608,-4.21226 -4.21225,-4.21226 -2.32616,0 -4.21225,1.886083 -4.21225,4.21226 v 23.944538 c -0.8713,0.04033 -1.72936,0.130859 -2.57196,0.267879 V 72.607152 c 0,-2.326175 -1.88609,-4.212261 -4.21225,-4.212261 -2.32617,0 -4.21153,1.886086 -4.21153,4.212261 v 25.577461 c -0.74105,0.468757 -1.45411,0.978005 -2.13336,1.52697 v -9.690969 c 0,-2.326178 -1.88536,-4.212263 -4.21224,-4.212263 -2.32545,0 -4.21154,1.886085 -4.21154,4.212263 v 26.456876 c 0,0.056 0.0147,0.10807 0.0163,0.16473 -0.006,0.22015 -0.0163,0.4371 -0.0163,0.65713 0,12.46604 10.14137,22.60816 22.6074,22.60816 6.45747,0 12.28872,-2.72648 16.41266,-7.08226 l 23.12547,-21.81631 c 1.69184,-1.59616 1.76982,-4.2623 0.17364,-5.95412 z m -53.89542,12.24382 c 0,-7.82182 6.36253,-14.18364 14.18362,-14.18364 7.82181,0 14.18512,6.36182 14.18512,14.18364 0,3.72217 -1.45268,7.10138 -3.80534,9.63579 l -0.0383,0.036 c -0.0427,0.0403 -0.0713,0.0875 -0.11112,0.12809 -2.58447,2.69631 -6.21095,4.38521 -10.23039,4.38521 -7.82034,0 -14.18362,-6.36477 -14.18362,-14.18511 z"
   id="path3820"
   inkscape:connector-curvature="0"
   style="fill:#999999;stroke:#999999"
   inkscape:export-filename="/Users/shubhro/Documents/Human-Computer/Oz/extension/signals/signal0.png"
   inkscape:export-xdpi="90"
   inkscape:export-ydpi="90" /><flowRoot
   xml:space="preserve"
   id="flowRoot3822"
   style="font-size:40.00000381000000260px;font-style:normal;font-variant:normal;font-weight:bold;font-stretch:normal;text-align:start;line-height:125%;letter-spacing:0px;word-spacing:0px;writing-mode:lr-tb;text-anchor:start;fill:#999999;fill-opacity:1;stroke:#999999;stroke-width:2.26144885999999978;stroke-miterlimit:4;stroke-opacity:1;stroke-dasharray:none;font-family:Serto Urhoy;-inkscape-font-specification:Serto Urhoy Bold"
   transform="matrix(0.68266602,0,0,0.68266602,234.08039,-177.25963)"
   inkscape:export-filename="/Users/shubhro/Documents/Human-Computer/Oz/extension/signals/signal0.png"
   inkscape:export-xdpi="90"
   inkscape:export-ydpi="90"><flowRegion
     id="flowRegion3824"><rect
       id="rect3826"
       width="378"
       height="235"
       x="656"
       y="410"
       style="font-size:40.00000381000000260px;font-style:normal;font-variant:normal;font-weight:bold;font-stretch:normal;text-align:start;line-height:125%;writing-mode:lr-tb;text-anchor:start;stroke:#999999;stroke-width:2.26144885999999978;stroke-miterlimit:4;stroke-opacity:1;stroke-dasharray:none;font-family:Serto Urhoy;-inkscape-font-specification:Serto Urhoy Bold;fill:#999999" /></flowRegion><flowPara
     id="flowPara3828">3</flowPara></flowRoot><path
   style="fill:#000000"
   inkscape:connector-curvature="0"
   id="path3830"
   d="m 589.07675,388.05479 c -1.5969,-1.69106 -4.26156,-1.76835 -5.95486,-0.17213 l -11.22752,10.59102 c -0.34514,-4.29838 -1.89423,-8.26336 -4.31455,-11.54839 0.0368,-0.22077 0.0692,-0.44375 0.0692,-0.67555 v -26.45761 c 0,-2.32614 -1.88533,-4.21226 -4.213,-4.21226 -2.32762,0 -4.21224,1.88612 -4.21224,4.21226 v 20.16572 c -0.80436,-0.39151 -1.63589,-0.73146 -2.48881,-1.02656 v -25.15655 c 0,-2.32618 -1.88609,-4.21226 -4.21225,-4.21226 -2.32616,0 -4.21225,1.88608 -4.21225,4.21226 v 23.94454 c -0.87131,0.0403 -1.72937,0.13085 -2.57196,0.26787 v -22.38 c 0,-2.32617 -1.88609,-4.21226 -4.21225,-4.21226 -2.32617,0 -4.21154,1.88609 -4.21154,4.21226 v 25.57746 c -0.74105,0.46876 -1.45411,0.97801 -2.13335,1.52697 v -9.69097 c 0,-2.32617 -1.88537,-4.21226 -4.21225,-4.21226 -2.32545,0 -4.21153,1.88609 -4.21153,4.21226 v 26.45688 c 0,0.056 0.0147,0.10807 0.0163,0.16473 -0.006,0.22015 -0.0163,0.4371 -0.0163,0.65713 0,12.46604 10.14137,22.60816 22.6074,22.60816 6.45747,0 12.28871,-2.72648 16.41266,-7.08226 l 23.12546,-21.81631 c 1.69184,-1.59616 1.76983,-4.2623 0.17365,-5.95412 z m -53.89542,12.24382 c 0,-7.82182 6.36253,-14.18364 14.18362,-14.18364 7.82181,0 14.18512,6.36182 14.18512,14.18364 0,3.72217 -1.45268,7.10138 -3.80534,9.63579 l -0.0383,0.036 c -0.0427,0.0403 -0.0713,0.0875 -0.11112,0.12809 -2.58446,2.69631 -6.21094,4.38521 -10.23038,4.38521 -7.82034,0 -14.18362,-6.36477 -14.18362,-14.18511 z"
   inkscape:export-filename="/Users/shubhro/Documents/Human-Computer/Oz/extension/signal3.png"
   inkscape:export-xdpi="90"
   inkscape:export-ydpi="90" /><flowRoot
   transform="matrix(0.68266602,0,0,0.68266602,93.82873,105.74037)"
   style="font-size:40.00000381px;font-style:normal;font-variant:normal;font-weight:bold;font-stretch:normal;text-align:start;line-height:125%;letter-spacing:0px;word-spacing:0px;writing-mode:lr-tb;text-anchor:start;fill:#000000;fill-opacity:1;stroke:#000000;stroke-width:2.26144886;stroke-miterlimit:4;stroke-opacity:1;stroke-dasharray:none;font-family:Serto Urhoy;-inkscape-font-specification:Serto Urhoy Bold"
   id="flowRoot3832"
   xml:space="preserve"
   inkscape:export-filename="/Users/shubhro/Documents/Human-Computer/Oz/extension/signal3.png"
   inkscape:export-xdpi="90"
   inkscape:export-ydpi="90"><flowRegion
     id="flowRegion3834"><rect
       style="font-size:40.00000381px;font-style:normal;font-variant:normal;font-weight:bold;font-stretch:normal;text-align:start;line-height:125%;writing-mode:lr-tb;text-anchor:start;stroke:#000000;stroke-width:2.26144886;stroke-miterlimit:4;stroke-opacity:1;stroke-dasharray:none;font-family:Serto Urhoy;-inkscape-font-specification:Serto Urhoy Bold"
       y="410"
       x="656"
       height="235"
       width="378"
       id="rect3836" /></flowRegion><flowPara
     id="flowPara3838">1</flowPara></flowRoot><path
   d="m 658.64695,388.05479 c -1.5969,-1.69106 -4.26156,-1.76835 -5.95486,-0.17213 l -11.22752,10.59102 c -0.34514,-4.29838 -1.89423,-8.26336 -4.31455,-11.54839 0.0368,-0.22077 0.0692,-0.44375 0.0692,-0.67555 v -26.45761 c 0,-2.32614 -1.88533,-4.21226 -4.21299,-4.21226 -2.32763,0 -4.21225,1.88612 -4.21225,4.21226 v 20.16572 c -0.80436,-0.39151 -1.63589,-0.73146 -2.48881,-1.02656 v -25.15655 c 0,-2.32618 -1.88608,-4.21226 -4.21225,-4.21226 -2.32616,0 -4.21225,1.88608 -4.21225,4.21226 v 23.94454 c -0.87131,0.0403 -1.72936,0.13085 -2.57196,0.26787 v -22.38 c 0,-2.32617 -1.88609,-4.21226 -4.21225,-4.21226 -2.32617,0 -4.21154,1.88609 -4.21154,4.21226 v 25.57746 c -0.74105,0.46876 -1.45411,0.97801 -2.13335,1.52697 v -9.69097 c 0,-2.32617 -1.88537,-4.21226 -4.21225,-4.21226 -2.32544,0 -4.21153,1.88609 -4.21153,4.21226 v 26.45688 c 0,0.056 0.0147,0.10807 0.0163,0.16473 -0.006,0.22015 -0.0163,0.4371 -0.0163,0.65713 0,12.46604 10.14137,22.60816 22.6074,22.60816 6.45747,0 12.28871,-2.72648 16.41266,-7.08226 l 23.12546,-21.81631 c 1.69184,-1.59616 1.76983,-4.2623 0.17365,-5.95412 z m -53.89542,12.24382 c 0,-7.82182 6.36253,-14.18364 14.18362,-14.18364 7.82181,0 14.18512,6.36182 14.18512,14.18364 0,3.72217 -1.45268,7.10138 -3.80534,9.63579 l -0.0383,0.036 c -0.0427,0.0403 -0.0713,0.0875 -0.11111,0.12809 -2.58447,2.69631 -6.21095,4.38521 -10.23039,4.38521 -7.82034,0 -14.18362,-6.36477 -14.18362,-14.18511 z"
   id="path3840"
   inkscape:connector-curvature="0"
   style="fill:#000000"
   inkscape:export-filename="/Users/shubhro/Documents/Human-Computer/Oz/extension/signal3.png"
   inkscape:export-xdpi="90"
   inkscape:export-ydpi="90" /><flowRoot
   xml:space="preserve"
   id="flowRoot3842"
   style="font-size:40.00000381px;font-style:normal;font-variant:normal;font-weight:bold;font-stretch:normal;text-align:start;line-height:125%;letter-spacing:0px;word-spacing:0px;writing-mode:lr-tb;text-anchor:start;fill:#000000;fill-opacity:1;stroke:#000000;stroke-width:2.26144886;stroke-miterlimit:4;stroke-opacity:1;stroke-dasharray:none;font-family:Serto Urhoy;-inkscape-font-specification:Serto Urhoy Bold"
   transform="matrix(0.68266602,0,0,0.68266602,164.04989,105.74037)"
   inkscape:export-filename="/Users/shubhro/Documents/Human-Computer/Oz/extension/signal3.png"
   inkscape:export-xdpi="90"
   inkscape:export-ydpi="90"><flowRegion
     id="flowRegion3844"><rect
       id="rect3846"
       width="378"
       height="235"
       x="656"
       y="410"
       style="font-size:40.00000381px;font-style:normal;font-variant:normal;font-weight:bold;font-stretch:normal;text-align:start;line-height:125%;writing-mode:lr-tb;text-anchor:start;stroke:#000000;stroke-width:2.26144886;stroke-miterlimit:4;stroke-opacity:1;stroke-dasharray:none;font-family:Serto Urhoy;-inkscape-font-specification:Serto Urhoy Bold" /></flowRegion><flowPara
     id="flowPara3848">2</flowPara></flowRoot><path
   style="fill:#000000"
   inkscape:connector-curvature="0"
   id="path3850"
   d="m 728.67745,388.05479 c -1.59689,-1.69106 -4.26156,-1.76835 -5.95486,-0.17213 l -11.22752,10.59102 c -0.34514,-4.29838 -1.89422,-8.26336 -4.31455,-11.54839 0.0368,-0.22077 0.0692,-0.44375 0.0692,-0.67555 v -26.45761 c 0,-2.32614 -1.88534,-4.21226 -4.213,-4.21226 -2.32763,0 -4.21225,1.88612 -4.21225,4.21226 v 20.16572 c -0.80436,-0.39151 -1.63589,-0.73146 -2.48881,-1.02656 v -25.15655 c 0,-2.32618 -1.88608,-4.21226 -4.21225,-4.21226 -2.32616,0 -4.21225,1.88608 -4.21225,4.21226 v 23.94454 c -0.8713,0.0403 -1.72936,0.13085 -2.57196,0.26787 v -22.38 c 0,-2.32617 -1.88609,-4.21226 -4.21225,-4.21226 -2.32617,0 -4.21153,1.88609 -4.21153,4.21226 v 25.57746 c -0.74105,0.46876 -1.45411,0.97801 -2.13336,1.52697 v -9.69097 c 0,-2.32617 -1.88536,-4.21226 -4.21224,-4.21226 -2.32545,0 -4.21154,1.88609 -4.21154,4.21226 v 26.45688 c 0,0.056 0.0147,0.10807 0.0163,0.16473 -0.006,0.22015 -0.0163,0.4371 -0.0163,0.65713 0,12.46604 10.14137,22.60816 22.6074,22.60816 6.45747,0 12.28872,-2.72648 16.41266,-7.08226 l 23.12547,-21.81631 c 1.69184,-1.59616 1.76982,-4.2623 0.17364,-5.95412 z m -53.89542,12.24382 c 0,-7.82182 6.36253,-14.18364 14.18362,-14.18364 7.82181,0 14.18512,6.36182 14.18512,14.18364 0,3.72217 -1.45268,7.10138 -3.80534,9.63579 l -0.0383,0.036 c -0.0427,0.0403 -0.0713,0.0875 -0.11112,0.12809 -2.58447,2.69631 -6.21095,4.38521 -10.23039,4.38521 -7.82034,0 -14.18362,-6.36477 -14.18362,-14.18511 z"
   inkscape:export-filename="/Users/shubhro/Documents/Human-Computer/Oz/extension/signal3.png"
   inkscape:export-xdpi="90"
   inkscape:export-ydpi="90" /><flowRoot
   transform="matrix(0.68266602,0,0,0.68266602,234.08039,105.74037)"
   style="font-size:40.00000381px;font-style:normal;font-variant:normal;font-weight:bold;font-stretch:normal;text-align:start;line-height:125%;letter-spacing:0px;word-spacing:0px;writing-mode:lr-tb;text-anchor:start;fill:#000000;fill-opacity:1;stroke:#000000;stroke-width:2.26144886;stroke-miterlimit:4;stroke-opacity:1;stroke-dasharray:none;font-family:Serto Urhoy;-inkscape-font-specification:Serto Urhoy Bold"
   id="flowRoot3852"
   xml:space="preserve"
   inkscape:export-filename="/Users/shubhro/Documents/Human-Computer/Oz/extension/signal3.png"
   inkscape:export-xdpi="90"
   inkscape:export-ydpi="90"><flowRegion
     id="flowRegion3854"><rect
       style="font-size:40.00000381px;font-style:normal;font-variant:normal;font-weight:bold;font-stretch:normal;text-align:start;line-height:125%;writing-mode:lr-tb;text-anchor:start;stroke:#000000;stroke-width:2.26144886;stroke-miterlimit:4;stroke-opacity:1;stroke-dasharray:none;font-family:Serto Urhoy;-inkscape-font-specification:Serto Urhoy Bold"
       y="410"
       x="656"
       height="235"
       width="378"
       id="rect3856" /></flowRegion><flowPara
     id="flowPara3858">3</flowPara></flowRoot><path
   style="fill:#000000;stroke:#000000"
   inkscape:connector-curvature="0"
   id="path3860"
   d="m 589.07675,194.05479 c -1.5969,-1.69106 -4.26156,-1.76835 -5.95486,-0.17213 l -11.22752,10.59102 c -0.34514,-4.29838 -1.89423,-8.26336 -4.31455,-11.54839 0.0368,-0.22077 0.0692,-0.44375 0.0692,-0.67555 v -26.45761 c 0,-2.32614 -1.88533,-4.21226 -4.213,-4.21226 -2.32762,0 -4.21224,1.88612 -4.21224,4.21226 v 20.16572 c -0.80436,-0.39151 -1.63589,-0.73146 -2.48881,-1.02656 v -25.15655 c 0,-2.32618 -1.88609,-4.21226 -4.21225,-4.21226 -2.32616,0 -4.21225,1.88608 -4.21225,4.21226 v 23.94453 c -0.87131,0.0403 -1.72937,0.13086 -2.57196,0.26788 v -22.38 c 0,-2.32617 -1.88609,-4.21226 -4.21225,-4.21226 -2.32617,0 -4.21154,1.88609 -4.21154,4.21226 v 25.57746 c -0.74105,0.46876 -1.45411,0.97801 -2.13335,1.52697 v -9.69097 c 0,-2.32617 -1.88537,-4.21226 -4.21225,-4.21226 -2.32545,0 -4.21153,1.88609 -4.21153,4.21226 v 26.45688 c 0,0.056 0.0147,0.10807 0.0163,0.16473 -0.006,0.22015 -0.0163,0.4371 -0.0163,0.65713 0,12.46604 10.14137,22.60816 22.6074,22.60816 6.45747,0 12.28871,-2.72648 16.41266,-7.08226 l 23.12546,-21.81631 c 1.69184,-1.59616 1.76983,-4.2623 0.17365,-5.95412 z m -53.89542,12.24382 c 0,-7.82182 6.36253,-14.18364 14.18362,-14.18364 7.82181,0 14.18512,6.36182 14.18512,14.18364 0,3.72217 -1.45268,7.10138 -3.80534,9.63579 l -0.0383,0.036 c -0.0427,0.0403 -0.0713,0.0875 -0.11112,0.12809 -2.58446,2.69631 -6.21094,4.38521 -10.23038,4.38521 -7.82034,0 -14.18362,-6.36477 -14.18362,-14.18511 z"
   inkscape:export-filename="/Users/shubhro/Documents/Human-Computer/Oz/extension/signals/signal1.png"
   inkscape:export-xdpi="90"
   inkscape:export-ydpi="90" /><flowRoot
   transform="matrix(0.68266602,0,0,0.68266602,93.82873,-88.25963)"
   style="font-size:40.00000381px;font-style:normal;font-variant:normal;font-weight:bold;font-stretch:normal;text-align:start;line-height:125%;letter-spacing:0px;word-spacing:0px;writing-mode:lr-tb;text-anchor:start;fill:#000000;fill-opacity:1;stroke:#000000;stroke-width:2.26144886;stroke-miterlimit:4;stroke-opacity:1;stroke-dasharray:none;font-family:Serto Urhoy;-inkscape-font-specification:Serto Urhoy Bold"
   id="flowRoot3862"
   xml:space="preserve"
   inkscape:export-filename="/Users/shubhro/Documents/Human-Computer/Oz/extension/signals/signal1.png"
   inkscape:export-xdpi="90"
   inkscape:export-ydpi="90"><flowRegion
     id="flowRegion3864"><rect
       style="font-size:40.00000381px;font-style:normal;font-variant:normal;font-weight:bold;font-stretch:normal;text-align:start;line-height:125%;writing-mode:lr-tb;text-anchor:start;fill:#000000;stroke:#000000;stroke-width:2.26144886;stroke-miterlimit:4;stroke-opacity:1;stroke-dasharray:none;font-family:Serto Urhoy;-inkscape-font-specification:Serto Urhoy Bold"
       y="410"
       x="656"
       height="235"
       width="378"
       id="rect3866" /></flowRegion><flowPara
     id="flowPara3868">1</flowPara></flowRoot><path
   d="m 658.64695,194.05479 c -1.5969,-1.69106 -4.26156,-1.76835 -5.95486,-0.17213 l -11.22752,10.59102 c -0.34514,-4.29838 -1.89423,-8.26336 -4.31455,-11.54839 0.0368,-0.22077 0.0692,-0.44375 0.0692,-0.67555 v -26.45761 c 0,-2.32614 -1.88533,-4.21226 -4.21299,-4.21226 -2.32763,0 -4.21225,1.88612 -4.21225,4.21226 v 20.16572 c -0.80436,-0.39151 -1.63589,-0.73146 -2.48881,-1.02656 v -25.15655 c 0,-2.32618 -1.88608,-4.21226 -4.21225,-4.21226 -2.32616,0 -4.21225,1.88608 -4.21225,4.21226 v 23.94453 c -0.87131,0.0403 -1.72936,0.13086 -2.57196,0.26788 v -22.38 c 0,-2.32617 -1.88609,-4.21226 -4.21225,-4.21226 -2.32617,0 -4.21154,1.88609 -4.21154,4.21226 v 25.57746 c -0.74105,0.46876 -1.45411,0.97801 -2.13335,1.52697 v -9.69097 c 0,-2.32617 -1.88537,-4.21226 -4.21225,-4.21226 -2.32544,0 -4.21153,1.88609 -4.21153,4.21226 v 26.45688 c 0,0.056 0.0147,0.10807 0.0163,0.16473 -0.006,0.22015 -0.0163,0.4371 -0.0163,0.65713 0,12.46604 10.14137,22.60816 22.6074,22.60816 6.45747,0 12.28871,-2.72648 16.41266,-7.08226 l 23.12546,-21.81631 c 1.69184,-1.59616 1.76983,-4.2623 0.17365,-5.95412 z m -53.89542,12.24382 c 0,-7.82182 6.36253,-14.18364 14.18362,-14.18364 7.82181,0 14.18512,6.36182 14.18512,14.18364 0,3.72217 -1.45268,7.10138 -3.80534,9.63579 l -0.0383,0.036 c -0.0427,0.0403 -0.0713,0.0875 -0.11111,0.12809 -2.58447,2.69631 -6.21095,4.38521 -10.23039,4.38521 -7.82034,0 -14.18362,-6.36477 -14.18362,-14.18511 z"
   id="path3870"
   inkscape:connector-curvature="0"
   style="fill:#999999;stroke:#999999"
   inkscape:export-filename="/Users/shubhro/Documents/Human-Computer/Oz/extension/signals/signal1.png"
   inkscape:export-xdpi="90"
   inkscape:export-ydpi="90" /><flowRoot
   xml:space="preserve"
   id="flowRoot3872"
   style="font-size:40.00000381px;font-style:normal;font-variant:normal;font-weight:bold;font-stretch:normal;text-align:start;line-height:125%;letter-spacing:0px;word-spacing:0px;writing-mode:lr-tb;text-anchor:start;fill:#999999;fill-opacity:1;stroke:#999999;stroke-width:2.26144886;stroke-miterlimit:4;stroke-opacity:1;stroke-dasharray:none;font-family:Serto Urhoy;-inkscape-font-specification:Serto Urhoy Bold"
   transform="matrix(0.68266602,0,0,0.68266602,164.04989,-88.25963)"
   inkscape:export-filename="/Users/shubhro/Documents/Human-Computer/Oz/extension/signals/signal1.png"
   inkscape:export-xdpi="90"
   inkscape:export-ydpi="90"><flowRegion
     id="flowRegion3874"><rect
       id="rect3876"
       width="378"
       height="235"
       x="656"
       y="410"
       style="font-size:40.00000381px;font-style:normal;font-variant:normal;font-weight:bold;font-stretch:normal;text-align:start;line-height:125%;writing-mode:lr-tb;text-anchor:start;fill:#999999;stroke:#999999;stroke-width:2.26144886;stroke-miterlimit:4;stroke-opacity:1;stroke-dasharray:none;font-family:Serto Urhoy;-inkscape-font-specification:Serto Urhoy Bold" /></flowRegion><flowPara
     id="flowPara3878">2</flowPara></flowRoot><path
   style="fill:#999999;stroke:#999999"
   inkscape:connector-curvature="0"
   id="path3880"
   d="m 728.67745,194.05479 c -1.59689,-1.69106 -4.26156,-1.76835 -5.95486,-0.17213 l -11.22752,10.59102 c -0.34514,-4.29838 -1.89422,-8.26336 -4.31455,-11.54839 0.0368,-0.22077 0.0692,-0.44375 0.0692,-0.67555 v -26.45761 c 0,-2.32614 -1.88534,-4.21226 -4.213,-4.21226 -2.32763,0 -4.21225,1.88612 -4.21225,4.21226 v 20.16572 c -0.80436,-0.39151 -1.63589,-0.73146 -2.48881,-1.02656 v -25.15655 c 0,-2.32618 -1.88608,-4.21226 -4.21225,-4.21226 -2.32616,0 -4.21225,1.88608 -4.21225,4.21226 v 23.94453 c -0.8713,0.0403 -1.72936,0.13086 -2.57196,0.26788 v -22.38 c 0,-2.32617 -1.88609,-4.21226 -4.21225,-4.21226 -2.32617,0 -4.21153,1.88609 -4.21153,4.21226 v 25.57746 c -0.74105,0.46876 -1.45411,0.97801 -2.13336,1.52697 v -9.69097 c 0,-2.32617 -1.88536,-4.21226 -4.21224,-4.21226 -2.32545,0 -4.21154,1.88609 -4.21154,4.21226 v 26.45688 c 0,0.056 0.0147,0.10807 0.0163,0.16473 -0.006,0.22015 -0.0163,0.4371 -0.0163,0.65713 0,12.46604 10.14137,22.60816 22.6074,22.60816 6.45747,0 12.28872,-2.72648 16.41266,-7.08226 l 23.12547,-21.81631 c 1.69184,-1.59616 1.76982,-4.2623 0.17364,-5.95412 z m -53.89542,12.24382 c 0,-7.82182 6.36253,-14.18364 14.18362,-14.18364 7.82181,0 14.18512,6.36182 14.18512,14.18364 0,3.72217 -1.45268,7.10138 -3.80534,9.63579 l -0.0383,0.036 c -0.0427,0.0403 -0.0713,0.0875 -0.11112,0.12809 -2.58447,2.69631 -6.21095,4.38521 -10.23039,4.38521 -7.82034,0 -14.18362,-6.36477 -14.18362,-14.18511 z"
   inkscape:export-filename="/Users/shubhro/Documents/Human-Computer/Oz/extension/signals/signal1.png"
   inkscape:export-xdpi="90"
   inkscape:export-ydpi="90" /><flowRoot
   transform="matrix(0.68266602,0,0,0.68266602,234.08039,-88.25963)"
   style="font-size:40.00000381px;font-style:normal;font-variant:normal;font-weight:bold;font-stretch:normal;text-align:start;line-height:125%;letter-spacing:0px;word-spacing:0px;writing-mode:lr-tb;text-anchor:start;fill:#999999;fill-opacity:1;stroke:#999999;stroke-width:2.26144886;stroke-miterlimit:4;stroke-opacity:1;stroke-dasharray:none;font-family:Serto Urhoy;-inkscape-font-specification:Serto Urhoy Bold"
   id="flowRoot3882"
   xml:space="preserve"
   inkscape:export-filename="/Users/shubhro/Documents/Human-Computer/Oz/extension/signals/signal1.png"
   inkscape:export-xdpi="90"
   inkscape:export-ydpi="90"><flowRegion
     id="flowRegion3884"><rect
       style="font-size:40.00000381px;font-style:normal;font-variant:normal;font-weight:bold;font-stretch:normal;text-align:start;line-height:125%;writing-mode:lr-tb;text-anchor:start;fill:#999999;stroke:#999999;stroke-width:2.26144886;stroke-miterlimit:4;stroke-opacity:1;stroke-dasharray:none;font-family:Serto Urhoy;-inkscape-font-specification:Serto Urhoy Bold"
       y="410"
       x="656"
       height="235"
       width="378"
       id="rect3886" /></flowRegion><flowPara
     id="flowPara3888">3</flowPara></flowRoot><path
   d="m 589.07675,288.05479 c -1.5969,-1.69106 -4.26156,-1.76835 -5.95486,-0.17213 l -11.22752,10.59102 c -0.34514,-4.29838 -1.89423,-8.26336 -4.31455,-11.54839 0.0368,-0.22077 0.0692,-0.44375 0.0692,-0.67555 v -26.45761 c 0,-2.32614 -1.88533,-4.21226 -4.213,-4.21226 -2.32762,0 -4.21224,1.88612 -4.21224,4.21226 v 20.16572 c -0.80436,-0.39151 -1.63589,-0.73146 -2.48881,-1.02656 v -25.15655 c 0,-2.32618 -1.88609,-4.21226 -4.21225,-4.21226 -2.32616,0 -4.21225,1.88608 -4.21225,4.21226 v 23.94453 c -0.87131,0.0403 -1.72937,0.13086 -2.57196,0.26788 v -22.38 c 0,-2.32617 -1.88609,-4.21226 -4.21225,-4.21226 -2.32617,0 -4.21154,1.88609 -4.21154,4.21226 v 25.57746 c -0.74105,0.46876 -1.45411,0.97801 -2.13335,1.52697 v -9.69097 c 0,-2.32617 -1.88537,-4.21226 -4.21225,-4.21226 -2.32545,0 -4.21153,1.88609 -4.21153,4.21226 v 26.45688 c 0,0.056 0.0147,0.10807 0.0163,0.16473 -0.006,0.22015 -0.0163,0.4371 -0.0163,0.65713 0,12.46604 10.14137,22.60816 22.6074,22.60816 6.45747,0 12.28871,-2.72648 16.41266,-7.08226 l 23.12546,-21.81631 c 1.69184,-1.59616 1.76983,-4.2623 0.17365,-5.95412 z m -53.89542,12.24382 c 0,-7.82182 6.36253,-14.18364 14.18362,-14.18364 7.82181,0 14.18512,6.36182 14.18512,14.18364 0,3.72217 -1.45268,7.10138 -3.80534,9.63579 l -0.0383,0.036 c -0.0427,0.0403 -0.0713,0.0875 -0.11112,0.12809 -2.58446,2.69631 -6.21094,4.38521 -10.23038,4.38521 -7.82034,0 -14.18362,-6.36477 -14.18362,-14.18511 z"
   id="path3890"
   inkscape:connector-curvature="0"
   style="fill:#000000;stroke:#000000"
   inkscape:export-filename="/Users/shubhro/Documents/Human-Computer/Oz/extension/signal2.png"
   inkscape:export-xdpi="90"
   inkscape:export-ydpi="90" /><flowRoot
   xml:space="preserve"
   id="flowRoot3892"
   style="font-size:40.00000381px;font-style:normal;font-variant:normal;font-weight:bold;font-stretch:normal;text-align:start;line-height:125%;letter-spacing:0px;word-spacing:0px;writing-mode:lr-tb;text-anchor:start;fill:#000000;fill-opacity:1;stroke:#000000;stroke-width:2.26144886;stroke-miterlimit:4;stroke-opacity:1;stroke-dasharray:none;font-family:Serto Urhoy;-inkscape-font-specification:Serto Urhoy Bold"
   transform="matrix(0.68266602,0,0,0.68266602,93.82873,5.74037)"
   inkscape:export-filename="/Users/shubhro/Documents/Human-Computer/Oz/extension/signal2.png"
   inkscape:export-xdpi="90"
   inkscape:export-ydpi="90"><flowRegion
     id="flowRegion3894"><rect
       id="rect3896"
       width="378"
       height="235"
       x="656"
       y="410"
       style="font-size:40.00000381px;font-style:normal;font-variant:normal;font-weight:bold;font-stretch:normal;text-align:start;line-height:125%;writing-mode:lr-tb;text-anchor:start;fill:#000000;stroke:#000000;stroke-width:2.26144886;stroke-miterlimit:4;stroke-opacity:1;stroke-dasharray:none;font-family:Serto Urhoy;-inkscape-font-specification:Serto Urhoy Bold" /></flowRegion><flowPara
     id="flowPara3898">1</flowPara></flowRoot><path
   style="fill:#000000;stroke:#000000"
   inkscape:connector-curvature="0"
   id="path3900"
   d="m 658.64695,288.05479 c -1.5969,-1.69106 -4.26156,-1.76835 -5.95486,-0.17213 l -11.22752,10.59102 c -0.34514,-4.29838 -1.89423,-8.26336 -4.31455,-11.54839 0.0368,-0.22077 0.0692,-0.44375 0.0692,-0.67555 v -26.45761 c 0,-2.32614 -1.88533,-4.21226 -4.21299,-4.21226 -2.32763,0 -4.21225,1.88612 -4.21225,4.21226 v 20.16572 c -0.80436,-0.39151 -1.63589,-0.73146 -2.48881,-1.02656 v -25.15655 c 0,-2.32618 -1.88608,-4.21226 -4.21225,-4.21226 -2.32616,0 -4.21225,1.88608 -4.21225,4.21226 v 23.94453 c -0.87131,0.0403 -1.72936,0.13086 -2.57196,0.26788 v -22.38 c 0,-2.32617 -1.88609,-4.21226 -4.21225,-4.21226 -2.32617,0 -4.21154,1.88609 -4.21154,4.21226 v 25.57746 c -0.74105,0.46876 -1.45411,0.97801 -2.13335,1.52697 v -9.69097 c 0,-2.32617 -1.88537,-4.21226 -4.21225,-4.21226 -2.32544,0 -4.21153,1.88609 -4.21153,4.21226 v 26.45688 c 0,0.056 0.0147,0.10807 0.0163,0.16473 -0.006,0.22015 -0.0163,0.4371 -0.0163,0.65713 0,12.46604 10.14137,22.60816 22.6074,22.60816 6.45747,0 12.28871,-2.72648 16.41266,-7.08226 l 23.12546,-21.81631 c 1.69184,-1.59616 1.76983,-4.2623 0.17365,-5.95412 z m -53.89542,12.24382 c 0,-7.82182 6.36253,-14.18364 14.18362,-14.18364 7.82181,0 14.18512,6.36182 14.18512,14.18364 0,3.72217 -1.45268,7.10138 -3.80534,9.63579 l -0.0383,0.036 c -0.0427,0.0403 -0.0713,0.0875 -0.11111,0.12809 -2.58447,2.69631 -6.21095,4.38521 -10.23039,4.38521 -7.82034,0 -14.18362,-6.36477 -14.18362,-14.18511 z"
   inkscape:export-filename="/Users/shubhro/Documents/Human-Computer/Oz/extension/signal2.png"
   inkscape:export-xdpi="90"
   inkscape:export-ydpi="90" /><flowRoot
   transform="matrix(0.68266602,0,0,0.68266602,164.04989,5.74037)"
   style="font-size:40.00000381px;font-style:normal;font-variant:normal;font-weight:bold;font-stretch:normal;text-align:start;line-height:125%;letter-spacing:0px;word-spacing:0px;writing-mode:lr-tb;text-anchor:start;fill:#000000;fill-opacity:1;stroke:#000000;stroke-width:2.26144886;stroke-miterlimit:4;stroke-opacity:1;stroke-dasharray:none;font-family:Serto Urhoy;-inkscape-font-specification:Serto Urhoy Bold"
   id="flowRoot3902"
   xml:space="preserve"
   inkscape:export-filename="/Users/shubhro/Documents/Human-Computer/Oz/extension/signal2.png"
   inkscape:export-xdpi="90"
   inkscape:export-ydpi="90"><flowRegion
     id="flowRegion3904"><rect
       style="font-size:40.00000381px;font-style:normal;font-variant:normal;font-weight:bold;font-stretch:normal;text-align:start;line-height:125%;writing-mode:lr-tb;text-anchor:start;fill:#000000;stroke:#000000;stroke-width:2.26144886;stroke-miterlimit:4;stroke-opacity:1;stroke-dasharray:none;font-family:Serto Urhoy;-inkscape-font-specification:Serto Urhoy Bold"
       y="410"
       x="656"
       height="235"
       width="378"
       id="rect3906" /></flowRegion><flowPara
     id="flowPara3908">2</flowPara></flowRoot><path
   d="m 728.67745,288.05479 c -1.59689,-1.69106 -4.26156,-1.76835 -5.95486,-0.17213 l -11.22752,10.59102 c -0.34514,-4.29838 -1.89422,-8.26336 -4.31455,-11.54839 0.0368,-0.22077 0.0692,-0.44375 0.0692,-0.67555 v -26.45761 c 0,-2.32614 -1.88534,-4.21226 -4.213,-4.21226 -2.32763,0 -4.21225,1.88612 -4.21225,4.21226 v 20.16572 c -0.80436,-0.39151 -1.63589,-0.73146 -2.48881,-1.02656 v -25.15655 c 0,-2.32618 -1.88608,-4.21226 -4.21225,-4.21226 -2.32616,0 -4.21225,1.88608 -4.21225,4.21226 v 23.94453 c -0.8713,0.0403 -1.72936,0.13086 -2.57196,0.26788 v -22.38 c 0,-2.32617 -1.88609,-4.21226 -4.21225,-4.21226 -2.32617,0 -4.21153,1.88609 -4.21153,4.21226 v 25.57746 c -0.74105,0.46876 -1.45411,0.97801 -2.13336,1.52697 v -9.69097 c 0,-2.32617 -1.88536,-4.21226 -4.21224,-4.21226 -2.32545,0 -4.21154,1.88609 -4.21154,4.21226 v 26.45688 c 0,0.056 0.0147,0.10807 0.0163,0.16473 -0.006,0.22015 -0.0163,0.4371 -0.0163,0.65713 0,12.46604 10.14137,22.60816 22.6074,22.60816 6.45747,0 12.28872,-2.72648 16.41266,-7.08226 l 23.12547,-21.81631 c 1.69184,-1.59616 1.76982,-4.2623 0.17364,-5.95412 z m -53.89542,12.24382 c 0,-7.82182 6.36253,-14.18364 14.18362,-14.18364 7.82181,0 14.18512,6.36182 14.18512,14.18364 0,3.72217 -1.45268,7.10138 -3.80534,9.63579 l -0.0383,0.036 c -0.0427,0.0403 -0.0713,0.0875 -0.11112,0.12809 -2.58447,2.69631 -6.21095,4.38521 -10.23039,4.38521 -7.82034,0 -14.18362,-6.36477 -14.18362,-14.18511 z"
   id="path3910"
   inkscape:connector-curvature="0"
   style="fill:#999999;stroke:#999999"
   inkscape:export-filename="/Users/shubhro/Documents/Human-Computer/Oz/extension/signal2.png"
   inkscape:export-xdpi="90"
   inkscape:export-ydpi="90" /><flowRoot
   xml:space="preserve"
   id="flowRoot3912"
   style="font-size:40.00000381px;font-style:normal;font-variant:normal;font-weight:bold;font-stretch:normal;text-align:start;line-height:125%;letter-spacing:0px;word-spacing:0px;writing-mode:lr-tb;text-anchor:start;fill:#999999;fill-opacity:1;stroke:#999999;stroke-width:2.26144886;stroke-miterlimit:4;stroke-opacity:1;stroke-dasharray:none;font-family:Serto Urhoy;-inkscape-font-specification:Serto Urhoy Bold"
   transform="matrix(0.68266602,0,0,0.68266602,234.08039,5.74037)"
   inkscape:export-filename="/Users/shubhro/Documents/Human-Computer/Oz/extension/signal2.png"
   inkscape:export-xdpi="90"
   inkscape:export-ydpi="90"><flowRegion
     id="flowRegion3914"><rect
       id="rect3916"
       width="378"
       height="235"
       x="656"
       y="410"
       style="font-size:40.00000381px;font-style:normal;font-variant:normal;font-weight:bold;font-stretch:normal;text-align:start;line-height:125%;writing-mode:lr-tb;text-anchor:start;fill:#999999;stroke:#999999;stroke-width:2.26144886;stroke-miterlimit:4;stroke-opacity:1;stroke-dasharray:none;font-family:Serto Urhoy;-inkscape-font-specification:Serto Urhoy Bold" /></flowRegion><flowPara
     id="flowPara3918">3</flowPara></flowRoot><g
   id="g3932"
   transform="matrix(0.08459924,0,0,0.08459924,180.14686,557.66615)"><g
     id="g3940"
     inkscape:export-filename="/Users/shubhro/Documents/Human-Computer/Oz/extension/icon.png"
     inkscape:export-xdpi="90"
     inkscape:export-ydpi="90"><path
       d="m 416.2542,494.82612 c -4.9063,-5.1956 -13.0932,-5.43305 -18.2957,-0.52883 l -34.4954,32.5398 c -1.0604,-13.20633 -5.8198,-25.38833 -13.256,-35.48123 0.113,-0.67829 0.2125,-1.36339 0.2125,-2.07556 v -81.28827 c 0,-7.14684 -5.7925,-12.94173 -12.944,-12.94173 -7.1514,0 -12.9417,5.79489 -12.9417,12.94173 v 61.95708 c -2.4713,-1.20285 -5.0261,-2.24734 -7.6466,-3.154 v -77.2909 c 0,-7.14694 -5.7948,-12.94173 -12.9417,-12.94173 -7.1469,0 -12.9417,5.79479 -12.9417,12.94173 v 73.56712 c -2.677,0.12392 -5.3133,0.40205 -7.9021,0.82303 v -68.76025 c 0,-7.14693 -5.7948,-12.94173 -12.9417,-12.94173 -7.1469,0 -12.9395,5.7948 -12.9395,12.94173 v 78.58411 c -2.2768,1.44021 -4.4676,3.00482 -6.5545,4.69146 v -29.7745 c 0,-7.14694 -5.7926,-12.94174 -12.9417,-12.94174 -7.1447,0 -12.9395,5.7948 -12.9395,12.94174 v 81.28601 c 0,0.17217 0.045,0.33204 0.05,0.50611 -0.018,0.6764 -0.05,1.34296 -0.05,2.01898 0,38.30062 31.1583,69.46123 69.4589,69.46123 19.8399,0 37.7558,-8.37684 50.4262,-21.75952 l 71.0506,-67.02836 c 5.198,-4.90403 5.4376,-13.09546 0.5335,-18.29342 z m -165.5881,37.61789 c 0,-24.03175 19.5482,-43.57778 43.5777,-43.57778 24.0317,0 43.5823,19.54603 43.5823,43.57778 0,11.43596 -4.4632,21.81825 -11.6915,29.60497 l -0.1176,0.11069 c -0.1311,0.12392 -0.2192,0.26867 -0.3414,0.39354 -7.9405,8.28413 -19.0825,13.4731 -31.4318,13.4731 -24.0272,0 -43.5777,-19.55511 -43.5777,-43.5823 z"
       id="path3920"
       inkscape:connector-curvature="0"
       style="fill:#000000" /><flowRoot
       xml:space="preserve"
       id="flowRoot3922"
       style="font-size:40.00000381px;font-style:normal;font-variant:normal;font-weight:bold;font-stretch:normal;text-align:start;line-height:125%;letter-spacing:0px;word-spacing:0px;writing-mode:lr-tb;text-anchor:start;fill:#000000;fill-opacity:1;stroke:#000000;stroke-width:2.26144886;stroke-miterlimit:4;stroke-opacity:1;stroke-dasharray:none;font-family:Serto Urhoy;-inkscape-font-specification:Serto Urhoy Bold"
       transform="matrix(3.2965815,0,0,3.2965815,-1899.1864,-906.2467)"><flowRegion
         id="flowRegion3924"><rect
           id="rect3926"
           width="378"
           height="235"
           x="656"
           y="410"
           style="font-size:40.00000381px;font-style:normal;font-variant:normal;font-weight:bold;font-stretch:normal;text-align:start;line-height:125%;writing-mode:lr-tb;text-anchor:start;stroke:#000000;stroke-width:2.26144886;stroke-miterlimit:4;stroke-opacity:1;stroke-dasharray:none;font-family:Serto Urhoy;-inkscape-font-specification:Serto Urhoy Bold" /></flowRegion><flowPara
         id="flowPara3928">z</flowPara></flowRoot><rect
       style="opacity:1;fill:none;fill-opacity:1;stroke:none"
       id="rect3930"
       width="236.40875"
       height="236.40875"
       x="196.79562"
       y="372.79562" /></g></g><path
   inkscape:export-ydpi="90"
   inkscape:export-xdpi="90"
   inkscape:export-filename="/Users/shubhro/Documents/Human-Computer/Oz/extension/logo_big.png"
   d="m 405.51584,385.78359 c -7.80856,-8.26902 -20.83834,-8.64689 -29.11836,-0.84165 l -54.90071,51.7883 c -1.68765,-21.01834 -9.26242,-40.40647 -21.09745,-56.46974 0.1799,-1.0795 0.33797,-2.16985 0.33797,-3.30333 V 247.58379 c 0,-11.37445 -9.21897,-20.59726 -20.60087,-20.59726 -11.38173,0 -20.59717,9.22281 -20.59717,20.59726 v 98.60704 c -3.93322,-1.91437 -7.99922,-3.57673 -12.16987,-5.01965 V 218.15974 c 0,-11.37468 -9.22266,-20.59726 -20.59726,-20.59726 -11.37451,0 -20.59717,9.22258 -20.59717,20.59726 v 117.08488 c -4.2606,0.19722 -8.4563,0.63984 -12.5765,1.30985 V 227.11991 c 0,-11.3746 -9.22266,-20.59726 -20.59717,-20.59726 -11.3746,0 -20.59372,9.22266 -20.59372,20.59726 v 125.06967 c -3.62363,2.29209 -7.1104,4.78223 -10.4318,7.46659 v -47.38724 c 0,-11.37467 -9.21912,-20.59726 -20.59717,-20.59726 -11.37106,0 -20.59372,9.22259 -20.59372,20.59726 v 129.36978 c 0,0.274 0.0753,0.52842 0.0799,0.8055 -0.0301,1.07651 -0.0799,2.13742 -0.0799,3.21331 0,60.9569 49.58961,110.55019 110.5465,110.55019 31.57598,0 60.08982,-13.33203 80.25523,-34.63114 L 404.66638,414.89841 c 8.27278,-7.80496 8.65411,-20.84197 0.84909,-29.11467 z M 141.976,445.65391 c 0,-38.24747 31.11168,-69.35569 69.35561,-69.35569 38.24737,0 69.36291,31.10822 69.36291,69.35569 0,18.20074 -7.1034,34.72454 -18.60746,47.11745 l -0.18744,0.17613 c -0.2085,0.19723 -0.34927,0.42756 -0.54347,0.62629 -12.63763,13.18448 -30.37056,21.44295 -50.02492,21.44295 -38.24023,0 -69.35561,-31.12275 -69.35561,-69.36291 z"
   id="path3054"
   inkscape:connector-curvature="0"
   style="fill:#000000" /><flowRoot
   inkscape:export-ydpi="90"
   inkscape:export-xdpi="90"
   inkscape:export-filename="/Users/shubhro/Documents/Human-Computer/Oz/extension/logo_big.png"
   xml:space="preserve"
   id="flowRoot3056"
   style="font-size:40.00000381px;font-style:normal;font-variant:normal;font-weight:bold;font-stretch:normal;text-align:start;line-height:125%;letter-spacing:0px;word-spacing:0px;writing-mode:lr-tb;text-anchor:start;fill:#000000;fill-opacity:1;stroke:#000000;stroke-width:2.26144886;stroke-miterlimit:4;stroke-opacity:1;stroke-dasharray:none;font-family:Serto Urhoy;-inkscape-font-specification:Serto Urhoy Bold"
   transform="matrix(5.2466359,0,0,5.2466359,-3279.5967,-1844.0776)"><flowRegion
     id="flowRegion3058"><rect
       id="rect3060"
       width="378"
       height="235"
       x="656"
       y="410"
       style="font-size:40.00000381px;font-style:normal;font-variant:normal;font-weight:bold;font-stretch:normal;text-align:start;line-height:125%;writing-mode:lr-tb;text-anchor:start;fill:#000000;stroke:#000000;stroke-width:2.26144886;stroke-miterlimit:4;stroke-opacity:1;stroke-dasharray:none;font-family:Serto Urhoy;-inkscape-font-specification:Serto Urhoy Bold" /></flowRegion><flowPara
     id="flowPara3062">z</flowPara></flowRoot></svg>