<?xml version="1.0" encoding="UTF-8" standalone="no"?>
<!-- Created with Inkscape (http://www.inkscape.org/) -->

<svg
   xmlns:dc="http://purl.org/dc/elements/1.1/"
   xmlns:cc="http://creativecommons.org/ns#"
   xmlns:rdf="http://www.w3.org/1999/02/22-rdf-syntax-ns#"
   xmlns:svg="http://www.w3.org/2000/svg"
   xmlns="http://www.w3.org/2000/svg"
   xmlns:sodipodi="http://sodipodi.sourceforge.net/DTD/sodipodi-0.dtd"
   xmlns:inkscape="http://www.inkscape.org/namespaces/inkscape"
   width="744.09448819"
   height="1052.3622047"
   id="svg2"
   version="1.1"
   inkscape:version="0.48.2 r9819"
   sodipodi:docname="handshake_logo.svg">
  <defs
     id="defs4" />
  <sodipodi:namedview
     id="base"
     pagecolor="#ffffff"
     bordercolor="#666666"
     borderopacity="1.0"
     inkscape:pageopacity="0.0"
     inkscape:pageshadow="2"
     inkscape:zoom="1.4142136"
     inkscape:cx="301.7767"
     inkscape:cy="294.73088"
     inkscape:document-units="px"
     inkscape:current-layer="layer1"
     showgrid="false"
     showguides="true"
     inkscape:guide-bbox="true"
     inkscape:window-width="975"
     inkscape:window-height="687"
     inkscape:window-x="417"
     inkscape:window-y="145"
     inkscape:window-maximized="0" />
  <metadata
     id="metadata7">
    <rdf:RDF>
      <cc:Work
         rdf:about="">
        <dc:format>image/svg+xml</dc:format>
        <dc:type
           rdf:resource="http://purl.org/dc/dcmitype/StillImage" />
        <dc:title></dc:title>
      </cc:Work>
    </rdf:RDF>
  </metadata>
  <g
     inkscape:label="Layer 1"
     inkscape:groupmode="layer"
     id="layer1">
    <path
       style="fill:#000000"
       d="m 133.93266,707.72213 c -0.12595,-0.12595 -0.21287,-0.25791 -0.21287,-0.32317 0,-0.1243 -0.0322,-0.092 1.34031,-1.34204 l 0.9984,-0.90928 -0.0921,-0.12912 c -0.0506,-0.071 -0.13849,-0.1711 -0.19527,-0.22241 -0.10178,-0.092 -0.10476,-0.0919 -0.21236,0.005 -0.06,0.0541 -0.72814,0.66073 -1.4847,1.34808 -0.75657,0.68735 -1.41182,1.24973 -1.45612,1.24973 -0.13197,0 -0.50629,-0.40784 -0.50629,-0.55164 0,-0.10296 0.26406,-0.3664 1.44971,-1.44631 0.79734,-0.72624 1.45583,-1.33774 1.46332,-1.35889 0.007,-0.0212 -0.0704,-0.13311 -0.17302,-0.24878 l -0.18664,-0.21031 -1.66565,1.51813 c -1.21104,1.10377 -1.69745,1.51813 -1.78214,1.51813 -0.11293,0 -0.51874,-0.37724 -0.51874,-0.48222 0,-0.13111 0.16663,-0.30037 1.40695,-1.42917 0.74045,-0.67389 1.48142,-1.35277 1.64659,-1.50863 l 0.30032,-0.28338 -0.20286,-0.21822 -0.20285,-0.21822 -1.12079,1.0281 c -2.11004,1.93556 -1.97474,1.84652 -2.28462,1.50352 -0.33155,-0.36699 -0.44559,-0.2286 2.08939,-2.5356 2.13742,-1.94521 2.27114,-2.07665 2.36339,-2.3232 0.13033,-0.34834 0.12686,-0.52916 -0.0119,-0.61808 -0.0603,-0.0387 -0.44934,-0.17298 -0.86453,-0.29851 -0.41519,-0.12553 -0.83699,-0.27012 -0.93733,-0.32131 -0.3361,-0.17146 -0.40615,-0.43501 -0.19071,-0.7175 l 0.087,-0.11402 1.60457,4e-5 c 0.88251,10e-6 1.84595,0.0238 2.14097,0.0529 0.29502,0.0291 0.84404,0.0735 1.22003,0.0988 1.01938,0.0685 1.5363,0.28722 2.08826,0.88341 1.18207,1.27677 0.83643,3.40219 -0.73419,4.5147 -0.11171,0.0791 -1.16298,1.01921 -2.33616,2.08906 -2.30824,2.10496 -2.43255,2.2132 -2.54172,2.2132 -0.04,0 -0.1686,-0.0958 -0.28568,-0.21287 z m -8.78969,-5.48898 -0.20362,-0.2432 0.35784,-0.33905 c 0.19681,-0.18647 0.38379,-0.33996 0.41549,-0.34109 0.0508,-0.002 0.40529,0.38692 0.40529,0.44442 0,0.0122 -0.17356,0.17971 -0.38569,0.37218 l -0.38568,0.34995 -0.20363,-0.24321 z m -1.16879,-1.25333 -0.20397,-0.23171 0.36887,-0.35366 c 0.20287,-0.19451 0.38659,-0.35365 0.40825,-0.35365 0.0217,0 0.12335,0.10045 0.22598,0.22323 l 0.1866,0.22324 -0.1641,0.17093 c -0.0902,0.094 -0.26615,0.25697 -0.39088,0.36213 l -0.22678,0.19121 -0.20397,-0.23172 z M 122.815,699.7349 c -0.11306,-0.1152 -0.20557,-0.22275 -0.20557,-0.23899 0,-0.0163 0.1743,-0.18667 0.38734,-0.37872 l 0.38733,-0.34918 0.18524,0.20372 c 0.10188,0.11205 0.19158,0.22011 0.19934,0.24013 0.0133,0.0342 -0.6393,0.69245 -0.71363,0.71981 -0.019,0.007 -0.12699,-0.0816 -0.24005,-0.19677 z m 3.5557,-0.6838 -0.20612,-0.21002 0.36134,-0.35037 c 0.19873,-0.1927 0.38103,-0.35037 0.40511,-0.35037 0.0241,0 0.13755,0.0956 0.25215,0.21232 l 0.20838,0.21232 -0.38097,0.34791 c -0.20953,0.19134 -0.39284,0.34797 -0.40736,0.34807 -0.0145,9e-5 -0.11916,-0.0943 -0.23253,-0.20986 z m -4.73474,-0.59287 -0.21409,-0.21814 0.38668,-0.36246 0.38668,-0.36245 0.23397,0.2273 0.23396,0.22731 -0.38015,0.35135 c -0.20909,0.19325 -0.39204,0.35223 -0.40656,0.35329 -0.0145,0.001 -0.12274,-0.0962 -0.24049,-0.2162 z m 3.56806,-0.65701 -0.20736,-0.23727 0.37792,-0.34512 c 0.20785,-0.18982 0.39157,-0.3452 0.40825,-0.34529 0.0167,-1e-4 0.12044,0.0976 0.23056,0.21704 l 0.20022,0.21721 -0.38585,0.36755 c -0.21221,0.20215 -0.39271,0.36656 -0.40111,0.36535 -0.008,-0.001 -0.10858,-0.10897 -0.22263,-0.23947 z m -4.73065,-0.60291 -0.20717,-0.21109 0.36772,-0.3493 c 0.20225,-0.19212 0.38502,-0.3493 0.40616,-0.3493 0.0211,0 0.13217,0.0955 0.24674,0.21223 l 0.20829,0.21224 -0.37784,0.34815 c -0.20781,0.19149 -0.39108,0.34816 -0.40728,0.34816 -0.0162,0 -0.12268,-0.095 -0.23662,-0.21109 z m 3.56105,-0.65763 -0.19835,-0.23523 0.39336,-0.35982 0.39336,-0.35981 0.21137,0.2402 0.21136,0.2402 -0.37746,0.35247 c -0.2076,0.19386 -0.39047,0.35354 -0.40638,0.35485 -0.0159,0.001 -0.11817,-0.10348 -0.22726,-0.23286 z m 4.25768,-0.0573 c -0.0969,-0.10728 -0.17622,-0.21509 -0.17622,-0.23958 0,-0.0245 0.16868,-0.19994 0.37483,-0.3899 l 0.37484,-0.34539 0.20905,0.23168 0.20906,0.23167 -0.3683,0.35329 c -0.20256,0.19431 -0.38601,0.35329 -0.40766,0.35329 -0.0216,0 -0.11867,-0.0878 -0.2156,-0.19506 z m 2.8222,-0.61657 -0.18964,-0.22687 0.38261,-0.36684 0.38262,-0.36684 0.21747,0.24019 0.21746,0.2402 -0.38335,0.35352 c -0.21085,0.19443 -0.39554,0.35352 -0.41044,0.35352 -0.0149,0 -0.11242,-0.1021 -0.21673,-0.22688 z m -8.24983,-0.58146 -0.19111,-0.22358 0.38814,-0.36974 0.38814,-0.36973 0.21334,0.24003 0.21334,0.24002 -0.37676,0.35329 c -0.20721,0.19431 -0.39188,0.35329 -0.41037,0.35329 -0.0185,0 -0.11961,-0.10061 -0.22472,-0.22358 z m 4.25816,-0.063 -0.23057,-0.23409 0.39527,-0.35633 0.39528,-0.35634 0.21715,0.21312 c 0.11943,0.11721 0.21143,0.22593 0.20445,0.24159 -0.007,0.0157 -0.17881,0.18545 -0.38185,0.37731 l -0.36915,0.34883 -0.23058,-0.23409 z m 7.32396,-0.32687 -0.21514,-0.21932 0.38045,-0.37203 0.38046,-0.37203 0.22645,0.22645 0.22646,0.22646 -0.11961,0.12831 c -0.0658,0.0706 -0.24209,0.23478 -0.39177,0.3649 l -0.27216,0.23658 -0.21514,-0.21932 z m -4.50392,-0.28556 c -0.21063,-0.25705 -0.22444,-0.22324 0.27039,-0.66194 l 0.32927,-0.29192 0.20033,0.23927 0.20032,0.23927 -0.34493,0.33387 c -0.18972,0.18364 -0.37388,0.34051 -0.40925,0.34861 -0.0354,0.008 -0.14613,-0.0851 -0.24613,-0.20716 z m -8.22485,-0.55275 c -0.0992,-0.10163 -0.18044,-0.20928 -0.18044,-0.23922 0,-0.0299 0.16868,-0.20738 0.37485,-0.39432 l 0.37486,-0.33988 0.20798,0.22581 0.20799,0.22582 -0.35741,0.35329 c -0.19658,0.19431 -0.37766,0.35329 -0.4024,0.35329 -0.0247,0 -0.12618,-0.0832 -0.22543,-0.18479 z m 4.25579,-0.0814 c -0.11438,-0.11654 -0.19996,-0.23042 -0.19017,-0.25306 0.01,-0.0226 0.17726,-0.19327 0.37218,-0.37917 l 0.35439,-0.33798 0.21818,0.21412 c 0.12,0.11777 0.21818,0.22837 0.21818,0.24577 0,0.0174 -0.17208,0.18702 -0.3824,0.37693 l -0.3824,0.34529 -0.20796,-0.2119 z m 7.28503,-0.35261 -0.19313,-0.22573 0.38805,-0.35769 0.38805,-0.3577 0.21547,0.22557 0.21547,0.22557 -0.36769,0.35945 c -0.20224,0.1977 -0.38691,0.35873 -0.41039,0.35786 -0.0235,-8.8e-4 -0.1296,-0.10318 -0.23583,-0.22733 z m -4.4536,-0.23212 c -0.11103,-0.12045 -0.20147,-0.23593 -0.20099,-0.25663 0.001,-0.0585 0.72611,-0.70531 0.77006,-0.68721 0.0215,0.009 0.1236,0.1105 0.22694,0.2259 0.18394,0.20542 0.18592,0.21162 0.0945,0.29619 -0.0514,0.0475 -0.22732,0.21111 -0.39101,0.36356 l -0.29762,0.27718 -0.20186,-0.21899 z m -4.00699,-0.69029 -0.21507,-0.22104 0.38539,-0.36531 0.38538,-0.36531 0.22239,0.22239 0.22239,0.22239 -0.21794,0.22399 c -0.11986,0.1232 -0.29658,0.28698 -0.3927,0.36396 l -0.17477,0.13997 -0.21507,-0.22104 z m 7.31027,-0.31461 -0.20652,-0.24666 0.38515,-0.36053 0.38515,-0.36053 0.2071,0.22872 c 0.11391,0.1258 0.20709,0.24029 0.20708,0.25442 -2e-5,0.0141 -0.1736,0.18445 -0.38574,0.37847 l -0.38571,0.35277 -0.20651,-0.24666 z m -4.48388,-0.26829 -0.21514,-0.21932 0.38045,-0.37203 0.38046,-0.37203 0.22645,0.22645 0.22646,0.22646 -0.11961,0.12831 c -0.0658,0.0706 -0.24209,0.23478 -0.39177,0.3649 l -0.27215,0.23659 -0.21515,-0.21933 z m -4.01308,-0.68536 -0.19196,-0.22518 0.38687,-0.35488 0.38687,-0.35487 0.16238,0.15446 c 0.29382,0.27951 0.29258,0.28818 -0.0934,0.65344 -0.19147,0.18118 -0.37303,0.33455 -0.40346,0.34082 -0.0304,0.006 -0.14172,-0.0899 -0.24729,-0.21379 z m 7.33218,-0.29495 -0.2032,-0.23084 0.3628,-0.35467 c 0.19954,-0.19507 0.38285,-0.35467 0.40735,-0.35467 0.0245,0 0.12784,0.0996 0.22963,0.22141 0.21405,0.25607 0.22794,0.22145 -0.26391,0.65751 l -0.32948,0.2921 -0.20319,-0.23084 z m -4.48889,-0.28912 -0.21486,-0.2212 0.38984,-0.35983 0.38983,-0.35982 0.21826,0.2176 0.21826,0.21761 -0.31572,0.32061 c -0.44136,0.44822 -0.43234,0.44578 -0.68561,0.18503 z m 3.31361,-0.97477 -0.21485,-0.22138 0.38898,-0.36094 c 0.21394,-0.19852 0.40033,-0.35887 0.4142,-0.35635 0.0139,0.003 0.11126,0.10225 0.21643,0.2216 l 0.19121,0.21702 -0.31303,0.31791 c -0.4384,0.44522 -0.42983,0.44293 -0.68294,0.18214 z"
       id="path3050"
       inkscape:connector-curvature="0"
       inkscape:export-filename="/Users/shubhro/Documents/Human-Computer/Final Project/logo.png"
       inkscape:export-xdpi="89.910004"
       inkscape:export-ydpi="89.910004" />
    <path
       style="fill:#000000"
       d="m 209.67123,740.39677 c -1.12462,-0.15705 -1.99352,-0.45247 -3.06331,-1.04152 l -0.41001,-0.22576 0.35316,-0.0322 c 0.52737,-0.0481 0.97242,-0.28438 1.46701,-0.77889 0.47359,-0.4735 0.59889,-0.70642 0.95612,-1.77728 0.32179,-0.96463 0.47702,-1.25789 1.0242,-1.93489 0.226,-0.27963 0.67912,-0.84257 1.00692,-1.25099 0.81724,-1.0182 1.00402,-1.22797 2.40207,-2.69779 l 1.22178,-1.2845 0.10786,0.13472 c 0.32059,0.40045 0.1589,1.06613 -0.45271,1.86389 -0.81129,1.05821 -1.21256,1.76462 -1.10824,1.95102 0.0926,0.16539 0.3852,0.10111 1.01116,-0.22211 0.83768,-0.43255 2.44269,-1.48699 2.91361,-1.91414 0.20045,-0.18183 0.57305,-0.6863 0.9988,-1.35231 0.78158,-1.22265 1.08801,-1.55701 1.42698,-1.55701 0.41333,0 0.45326,0.21731 0.14007,0.76232 -0.11489,0.19993 -0.48431,0.88477 -0.82092,1.52186 -0.74356,1.40727 -1.04018,1.78166 -1.93996,2.44862 -0.47539,0.35239 -0.55955,0.43359 -0.52091,0.50263 0.0254,0.0453 0.0664,0.0823 0.0913,0.0823 0.12991,0 1.1111,-0.81279 1.69865,-1.40712 0.72228,-0.73061 2.11629,-2.05112 2.46904,-2.33885 0.34659,-0.28271 0.76927,-0.51782 0.93091,-0.51782 0.22768,0 0.36081,0.11823 0.36081,0.32044 0,0.22795 -0.12419,0.41393 -0.49823,0.7461 -0.17097,0.15183 -0.66097,0.65845 -1.08889,1.12583 -0.42791,0.46737 -1.19192,1.27016 -1.6978,1.78398 -0.87018,0.88382 -1.09996,1.16768 -1.06561,1.31641 0.0236,0.10206 1.52915,-0.79321 2.00224,-1.19062 1.15193,-0.96763 1.94244,-1.46721 2.32162,-1.46721 0.46683,0 0.46367,0.25485 -0.007,0.55377 -0.43629,0.27716 -1.08166,0.81498 -1.81418,1.51185 -0.37068,0.35264 -0.90627,0.85654 -1.19019,1.11978 -0.49848,0.46216 -0.63966,0.62662 -0.58492,0.68137 0.0143,0.0143 0.29089,-0.14591 0.61471,-0.35594 1.18618,-0.76937 1.78925,-1.06753 2.15919,-1.06753 0.20403,0 0.32194,0.0623 0.32194,0.17006 0,0.0303 -0.18864,0.17996 -0.4192,0.33258 -0.65557,0.43394 -1.42897,1.03153 -1.95224,1.50842 -0.73969,0.67414 -1.02579,0.89598 -2.08399,1.61595 -1.48967,1.01353 -1.89009,1.24233 -2.85027,1.62867 -0.6915,0.27823 -1.82896,0.61594 -2.30442,0.68417 -0.51258,0.0736 -1.74435,0.10118 -2.1273,0.0477 z m -6.25826,-4.18655 c -0.83133,-1.02487 -1.43151,-2.46794 -1.67557,-4.02872 -0.11086,-0.70893 -0.1112,-2.09013 -6.6e-4,-2.66807 0.12299,-0.64305 0.34039,-1.32302 0.64525,-2.01822 0.35418,-0.80768 0.62361,-1.26786 0.95052,-1.62346 0.14281,-0.15533 0.33931,-0.40539 0.43669,-0.55568 0.0974,-0.15029 0.29716,-0.42407 0.44396,-0.6084 0.14681,-0.18433 0.46797,-0.68008 0.71368,-1.10167 0.24572,-0.42159 0.48718,-0.83451 0.53658,-0.9176 0.11353,-0.19095 0.44808,-0.49568 0.54418,-0.49568 0.16814,0 0.21348,0.46454 0.0983,1.00764 -0.0997,0.47038 -0.37512,1.17341 -0.82314,2.10126 -0.2213,0.45831 -0.40236,0.88271 -0.40236,0.94313 0,0.0604 0.0671,0.2783 0.14915,0.48418 0.24479,0.61439 0.23964,1.52374 -0.0153,2.70247 -0.008,0.036 0.0327,0.0721 0.0907,0.081 0.12834,0.0197 0.17152,-0.11339 0.28341,-0.87321 0.11444,-0.77705 0.078,-1.3664 -0.12172,-1.96725 l -0.15926,-0.47922 0.28786,-0.57476 c 0.30443,-0.60784 0.63115,-1.35726 0.73095,-1.67664 0.0759,-0.24296 0.12255,-0.29595 0.64662,-0.73488 1.33962,-1.122 3.28311,-2.05306 3.56828,-1.70945 0.14603,0.17595 -0.31609,0.60071 -1.27874,1.17537 -0.31937,0.19065 -0.66126,0.44634 -0.89454,0.66901 -0.58952,0.56269 -1.65849,1.76579 -1.65849,1.86658 0,0.26755 0.13333,0.31247 0.32863,0.11072 0.20884,-0.21575 1.50204,-1.32867 1.84938,-1.59157 0.49686,-0.37607 0.72661,-0.47431 1.23439,-0.5278 0.89667,-0.0945 2.0318,-0.0269 2.42038,0.14403 0.23581,0.10374 0.24819,0.15055 0.0834,0.31536 -0.2037,0.2037 -0.43163,0.26311 -1.28875,0.33595 -0.92154,0.0783 -1.13119,0.13245 -1.46683,0.37884 -0.22334,0.16394 -1.77206,1.73043 -1.77052,1.79082 3.8e-4,0.0158 0.0187,0.0571 0.0408,0.0918 0.0311,0.0491 0.23685,-0.0164 0.92755,-0.29547 1.26882,-0.51264 1.58795,-0.60603 2.07082,-0.60603 0.67356,0 1.76966,0.22592 2.08628,0.43002 0.10872,0.0701 2.8e-4,0.20819 -0.19644,0.25015 -0.0896,0.0191 -0.57841,0.0533 -1.0863,0.0759 l -0.92343,0.0412 -0.58567,0.29357 c -0.32212,0.16147 -0.7067,0.3897 -0.85462,0.50718 -0.24513,0.19467 -0.27658,0.24175 -0.35497,0.53136 -0.0622,0.22972 -0.0715,0.33225 -0.0337,0.37008 0.0872,0.0871 0.18853,0.009 0.22232,-0.17083 0.028,-0.14924 0.0567,-0.17749 0.23361,-0.22965 0.5369,-0.15832 3.0522,0.0473 3.0522,0.24949 0,0.073 -0.45233,0.28122 -0.77758,0.3579 -0.16519,0.0389 -0.44048,0.0721 -0.61175,0.0736 -0.64203,0.006 -1.37076,0.12238 -1.59852,0.25586 -0.36392,0.21326 -1.12881,1.16124 -1.53314,1.90009 -0.0942,0.17207 -0.2106,0.35531 -0.25876,0.40721 -0.0482,0.0519 -0.1762,0.22372 -0.28454,0.38181 -0.48021,0.70076 -0.99921,1.20227 -1.91627,1.85169 -0.93973,0.66548 -1.23049,0.95718 -1.52092,1.52589 -0.2451,0.47997 -0.32125,0.78425 -0.35477,1.41767 l -0.0306,0.57935 -0.19792,-0.244 z"
       id="path3133"
       inkscape:connector-curvature="0" />
    <path
       style="fill:#000000"
       d="m 308.52112,825.22955 c -0.0514,-0.0517 -0.15644,-0.27064 -0.2335,-0.48658 -0.12712,-0.35621 -0.17055,-0.42539 -0.46842,-0.74611 -0.43058,-0.46363 -0.59944,-0.74812 -0.70245,-1.18345 -0.37007,-1.56391 -0.54209,-3.71913 -0.35885,-4.49591 0.13356,-0.56616 0.51677,-0.92876 0.98156,-0.92876 0.19196,0 0.19873,-0.004 0.24436,-0.1566 0.15389,-0.51358 0.51304,-0.76617 1.13225,-0.79632 l 0.35835,-0.0175 0.10979,-0.17746 c 0.13927,-0.22512 0.46829,-0.39521 0.82749,-0.42779 0.19475,-0.0177 0.25313,-0.0384 0.25377,-0.0902 4.5e-4,-0.037 -0.0597,-0.71919 -0.13362,-1.51596 l -0.13446,-1.44867 0.0999,-0.21319 c 0.11905,-0.25419 0.33766,-0.49004 0.52789,-0.56952 0.18152,-0.0758 0.67657,-0.0737 0.86182,0.004 0.0807,0.0337 0.20202,0.11661 0.26962,0.18421 0.11771,0.11771 0.15525,0.26929 0.88721,3.58243 0.42036,1.90274 0.77979,3.48975 0.79872,3.5267 0.0189,0.037 0.12268,0.0919 0.23056,0.1221 0.2632,0.0737 0.53431,0.0147 1.05807,-0.23009 0.59219,-0.27683 0.99628,-0.3683 1.54413,-0.34955 0.40144,0.0137 0.47182,0.0285 0.72182,0.1516 0.30012,0.14774 0.62934,0.46789 0.76768,0.74651 0.1099,0.22136 0.11245,0.78237 0.004,0.94735 -0.18215,0.27789 -0.52912,0.34486 -1.1003,0.2124 -0.33207,-0.077 -0.44386,-0.0618 -0.80656,0.10984 -0.1965,0.093 -0.36135,0.22085 -0.60573,0.46983 -0.41794,0.4258 -0.58621,0.73262 -0.69304,1.26372 -0.0796,0.39566 -0.18281,0.68257 -0.35954,0.9994 -0.29599,0.53065 -0.92121,1.06277 -1.25037,1.06419 -0.22936,9.9e-4 -0.3924,-0.15343 -0.39107,-0.37037 0.001,-0.18331 0.0719,-0.27123 0.38953,-0.48367 0.4331,-0.2897 0.72128,-0.77498 0.83973,-1.41402 0.11241,-0.60643 0.35289,-1.05218 0.85791,-1.59019 0.34831,-0.37107 0.79541,-0.66366 1.21824,-0.79723 0.38216,-0.12072 0.53736,-0.12764 0.90722,-0.0405 0.14687,0.0346 0.27716,0.0528 0.28953,0.0405 0.0339,-0.0339 -0.12444,-0.22984 -0.30208,-0.37368 -0.145,-0.1174 -0.18771,-0.12888 -0.52951,-0.14229 -0.43698,-0.0171 -0.77864,0.0702 -1.29952,0.33205 -0.36853,0.1853 -0.7445,0.28656 -1.06728,0.28747 l -0.21962,6.2e-4 0.0262,0.22313 c 0.0315,0.26841 -0.0217,0.38851 -0.20636,0.46568 -0.16696,0.0698 -0.33005,0.0397 -0.44427,-0.0819 -0.0912,-0.097 -0.0781,-0.0406 -1.46634,-6.33778 -0.21635,-0.98139 -0.41504,-1.7929 -0.44154,-1.80335 -0.086,-0.0339 -0.21176,0.0219 -0.26237,0.11648 -0.0487,0.091 0.082,1.66955 0.33337,4.0277 0.10289,0.96518 0.10271,0.97459 -0.0208,1.10789 -0.14236,0.15361 -0.42427,0.15673 -0.56562,0.006 -0.0853,-0.0908 -0.10666,-0.18391 -0.1654,-0.7204 l -0.0675,-0.61615 -0.16797,-0.0124 c -0.45274,-0.0336 -0.53741,0.20504 -0.45882,1.29307 l 0.0352,0.48714 -0.10797,0.10797 c -0.0762,0.0762 -0.15226,0.10796 -0.25877,0.10796 -0.34085,0 -0.42686,-0.16201 -0.46527,-0.87643 l -0.027,-0.50171 -0.15791,0 c -0.26894,0 -0.35343,0.0554 -0.4139,0.27135 -0.0668,0.23871 -0.0719,0.44873 -0.0256,1.05132 l 0.0359,0.46656 -0.10767,0.10767 c -0.0782,0.0782 -0.15141,0.10767 -0.26732,0.10767 -0.30991,0 -0.40203,-0.14678 -0.45212,-0.72039 -0.0281,-0.32158 -0.029,-0.32366 -0.14757,-0.32366 -0.16526,0 -0.23424,0.15125 -0.29188,0.63994 -0.10654,0.90339 0.24649,3.66106 0.53181,4.15422 0.0571,0.0987 0.25068,0.33536 0.43015,0.52589 0.33078,0.35117 0.42982,0.52044 0.61171,1.04552 0.11001,0.31756 0.12472,0.51062 0.0467,0.61229 -0.1399,0.18222 -0.43927,0.21767 -0.58656,0.0695 z m 11.89493,-5.57897 c -0.35201,-0.16689 -0.2916,0.0341 -1.13387,-3.77277 -0.63227,-2.85771 -0.78501,-3.49244 -0.85459,-3.55137 -0.21441,-0.18159 -0.62679,-0.13641 -1.17708,0.12895 -0.5193,0.25041 -0.86597,0.34394 -1.37081,0.36986 -0.37673,0.0193 -0.48702,0.009 -0.73084,-0.0657 -0.67881,-0.20916 -1.15701,-0.86254 -1.07634,-1.47064 0.0711,-0.53622 0.44013,-0.69649 1.19776,-0.52022 0.22675,0.0527 0.31829,0.0565 0.45868,0.0187 0.42101,-0.11337 0.80485,-0.3883 1.16216,-0.83242 0.28132,-0.34968 0.38935,-0.59212 0.49305,-1.10651 0.1162,-0.57641 0.34358,-1.01666 0.74607,-1.44451 0.22073,-0.23464 0.3841,-0.3655 0.57138,-0.4577 0.24725,-0.12172 0.27038,-0.12573 0.40369,-0.07 0.36234,0.15146 0.35683,0.53476 -0.0108,0.75019 -0.25605,0.15006 -0.5895,0.51584 -0.73748,0.80899 -0.0688,0.13636 -0.16616,0.44446 -0.2165,0.68536 -0.10712,0.51264 -0.25033,0.83584 -0.53979,1.21821 -0.52076,0.6879 -1.10217,1.09424 -1.78869,1.25009 -0.18244,0.0414 -0.27912,0.0379 -0.57956,-0.0211 -0.19833,-0.039 -0.36772,-0.0637 -0.37643,-0.055 -0.009,0.009 0.039,0.0915 0.10598,0.18401 0.17177,0.23711 0.41803,0.3463 0.78105,0.3463 0.37744,0 0.69348,-0.0842 1.19692,-0.31891 0.49604,-0.23126 0.76514,-0.30637 1.10001,-0.30702 l 0.255,-5e-4 -0.0418,-0.21158 c -0.0367,-0.18547 -0.0316,-0.22541 0.0411,-0.32366 0.16699,-0.2257 0.39454,-0.26387 0.59678,-0.10011 0.0817,0.0662 0.20258,0.56976 0.96476,4.02012 0.47922,2.16945 0.88154,3.98674 0.89404,4.03842 0.0342,0.14151 0.25626,0.13181 0.32274,-0.0141 0.0505,-0.1108 -0.0704,-1.58766 -0.32779,-4.00393 -0.10018,-0.94051 -0.10064,-0.961 -0.0238,-1.06493 0.12472,-0.16865 0.27575,-0.22503 0.44937,-0.16773 0.0806,0.0266 0.17287,0.0889 0.20514,0.13858 0.0431,0.0663 0.18893,1.06927 0.18893,1.29953 0,0.0307 0.28992,0.0278 0.40886,-0.004 0.21977,-0.0589 0.29607,-0.47653 0.21853,-1.19635 -0.0678,-0.62902 8.5e-4,-0.77738 0.36075,-0.78013 0.14187,-0.001 0.19272,0.0212 0.277,0.12134 0.0907,0.10774 0.10983,0.19163 0.15757,0.68907 l 0.0543,0.56641 0.12803,-5.8e-4 c 0.0704,-3.3e-4 0.17107,-0.0121 0.22367,-0.0262 0.21978,-0.0589 0.29607,-0.47653 0.21853,-1.19635 -0.0414,-0.38444 -0.0411,-0.49768 0.001,-0.57762 0.0803,-0.15067 0.1688,-0.20118 0.35256,-0.20118 0.28559,0 0.3742,0.11968 0.41545,0.56113 0.0421,0.44998 0.0527,0.48026 0.16905,0.48026 0.23895,0 0.33734,-0.46476 0.30057,-1.41967 -0.0402,-1.04406 -0.31411,-2.89737 -0.48423,-3.27661 -0.0417,-0.0929 -0.21177,-0.31933 -0.37795,-0.50308 -0.16617,-0.18375 -0.34769,-0.39268 -0.40338,-0.46429 -0.12056,-0.15502 -0.43387,-0.96611 -0.43387,-1.12319 0,-0.17335 0.20801,-0.35445 0.40713,-0.35445 0.22063,0 0.30526,0.10074 0.48327,0.57529 0.12583,0.33544 0.18706,0.43339 0.4568,0.73083 0.5513,0.60792 0.64686,0.80572 0.82162,1.70074 0.32249,1.65167 0.42062,3.36128 0.23369,4.07179 -0.13087,0.49747 -0.48148,0.8148 -0.93661,0.84773 l -0.23988,0.0174 -0.0463,0.17316 c -0.12424,0.46451 -0.52287,0.73906 -1.11847,0.77032 l -0.34455,0.0181 -0.12518,0.1776 c -0.1593,0.22601 -0.49401,0.39594 -0.84201,0.4275 -0.14597,0.0132 -0.25202,0.0426 -0.25079,0.0693 0.001,0.0255 0.064,0.69476 0.13968,1.48719 0.0886,0.9284 0.12517,1.48586 0.10278,1.56752 -0.0589,0.21465 -0.27313,0.51064 -0.45851,0.63336 -0.15096,0.0999 -0.22558,0.1186 -0.51382,0.12854 -0.26221,0.009 -0.37435,-0.006 -0.50425,-0.0676 z"
       id="path3200"
       inkscape:connector-curvature="0" />
  </g>
</svg>
